<svg
    xmlns="http://www.w3.org/2000/svg"
    width="170"
    height="46"
    viewBox="0 0 100 26"
    preserveAspectRatio="xMinYMin meet"
  >
    <path fill="#cc0000" d="M0 0h100v26H0z" />
    <path
      fill="#fff"
      d="M6.8 6.9c.3-2 1.5-2.4 2.5-2.4 1.9 0 2.3 1.1 3.3 4.1l1.8 5.7 1.8-5.7c1-3 1.4-4.1 3.3-4.1 1 0 2.1.4 2.5 2.4l1.5 8.5c.3 1.7.6 3.6.6 4.2 0 .8-.7 1.8-1.8 1.8-1.7 0-2-1.2-2.2-2.5L19 11.5l-2.5 8.2c-.4 1.2-.9 1.7-2.1 1.7-1.1 0-1.7-.5-2.1-1.7l-2.5-8.2-1.1 7.4c-.2 1.3-.5 2.5-2.2 2.5-1.1 0-1.8-1-1.8-1.8 0-.6.3-2.4.6-4.2l1.5-8.5zm22.2.8c.7-1.8 1.3-3.4 3.1-3.4 1.9 0 2.5 1.6 3.2 3.4l3.6 9.8c.5 1.3.6 1.8.6 2.3 0 .9-.7 1.5-1.8 1.5-1.2 0-1.6-.8-2-1.8l-.5-1.5H29l-.5 1.5c-.3 1-.7 1.8-2 1.8-1.1 0-1.8-.6-1.8-1.5 0-.6.1-1 .6-2.3L29 7.7zm3.3.8l-2.1 6.1h4l-1.9-6.1zm8.1-2c0-1.3.8-2 1.9-2 1.1 0 1.9.7 1.9 2v11.2h4.1c1.2 0 1.9.7 1.9 1.7s-.7 1.7-1.9 1.7h-5.9c-1 0-1.9-.7-1.9-1.9V6.5zm10.4 0c0-1.3.8-2 1.9-2 1.1 0 1.9.7 1.9 2v11.2h4.1c1.2 0 1.9.7 1.9 1.7s-.7 1.7-1.9 1.7h-5.9c-1 0-1.9-.7-1.9-1.9V6.5zm13.1 11.1c1.1 0 2 .9 2 2s-.9 2-2 2-2-.9-2-2 .9-2 2-2zm7 1.7c0 1.3-.8 2-1.9 2-1.1 0-1.9-.7-1.9-2V6.5c0-1.3.8-2 1.9-2 1.1 0 1.9.7 1.9 2V11h7V6.5c0-1.3.8-2 1.9-2s1.9.7 1.9 2v12.8c0 1.3-.8 2-1.9 2s-1.9-.7-1.9-2v-4.9h-7v4.9zM83.3 6.5c0-1.2.9-1.9 1.9-1.9h4.5c3.3 0 5.5 2 5.5 5.1 0 2.4-1.5 4.2-3.9 4.6l3.3 3.5c.5.6.8 1 .8 1.6 0 .5-.5 1.7-1.9 1.7-1 0-1.3-.3-1.8-.9l-4.6-5.8v4.8c0 1.3-.8 2-1.9 2s-1.9-.7-1.9-2V6.5zm3.8 5.3h2.5c1.2 0 1.9-.8 1.9-1.9 0-1.1-.9-1.8-1.9-1.8h-2.5v3.7z"
    ></path>
  </svg>
