<svg
    xmlns="http://www.w3.org/2000/svg"
    width="170"
    height="46"
    viewBox="0 0 100 26"
    preserveAspectRatio="xMinYMin meet"
  >
    <path fill="#cc0000" d="M0 0h100v26H0z" />
    <path
      fill="#fff"
      d="M6.6 7.2C6.9 5.3 8.1 4.9 9 4.9c1.9 0 2.3 1.1 3.2 4l1.8 5.6 1.8-5.6c.9-2.9 1.3-4 3.2-4 .9 0 2.1.4 2.4 2.3l1.5 8.4c.3 1.7.6 3.5.6 4.1 0 .8-.6 1.8-1.7 1.8-1.7 0-2-1.2-2.1-2.4l-1.1-7.2-2.5 8c-.4 1.2-.9 1.7-2 1.7s-1.7-.5-2-1.7l-2.5-8-1.1 7.2c-.2 1.3-.5 2.4-2.1 2.4-1.1 0-1.7-.9-1.7-1.8 0-.5.3-2.4.6-4.1l1.3-8.4zm21.8.8c.7-1.8 1.2-3.4 3.1-3.4 1.9 0 2.5 1.6 3.1 3.4l3.6 9.6c.5 1.3.5 1.7.5 2.3 0 .9-.7 1.5-1.8 1.5-1.2 0-1.6-.8-1.9-1.8l-.5-1.5h-6.1l-.4 1.5c-.3 1-.7 1.8-1.9 1.8-1.1 0-1.8-.6-1.8-1.5 0-.5.1-1 .5-2.3L28.4 8zm3.2.7l-2 6h3.9l-1.9-6zm7.9-1.9c0-1.3.8-2 1.9-2 1.1 0 1.9.7 1.9 2v11h4c1.2 0 1.9.6 1.9 1.7 0 1-.7 1.7-1.9 1.7h-5.8c-1 0-1.9-.7-1.9-1.9V6.8zm10.2 0c0-1.3.8-2 1.9-2 1.1 0 1.9.7 1.9 2v11h4c1.2 0 1.9.6 1.9 1.7 0 1-.7 1.7-1.9 1.7h-5.8c-1 0-1.9-.7-1.9-1.9V6.8zm12.9 10.8c1.1 0 2 .9 2 2s-.9 2-2 2-2-.9-2-2 .9-2 2-2zm6.6 1.7c0 1.3-.8 2-1.8 2s-1.8-.7-1.8-2V6.8c0-1.3.8-2 1.8-2s1.8.7 1.8 2v4.4H76V6.8c0-1.3.8-2 1.8-2s1.8.7 1.8 2v12.6c0 1.3-.8 2-1.8 2s-1.8-.7-1.8-2v-4.8h-6.9v4.7zm15.9-4.7c0 2.2 1.5 3.3 3.3 3.3 1.8 0 3.3-1.2 3.3-3.3V6.8c0-1.3.8-2 1.8-2 1.1 0 1.8.7 1.8 2v7.9c0 4.3-2.9 6.9-7 6.9s-7-2.6-7-6.9V6.8c0-1.3.8-2 1.8-2 1.1 0 1.8.7 1.8 2v7.8z"
    ></path>
  </svg>
