<svg
    xmlns="http://www.w3.org/2000/svg"
    width="170"
    height="46"
    viewBox="0 0 100 26"
    preserveAspectRatio="xMinYMin meet"
  >
    <path fill="#cc0000" d="M0 0h100v26H0z" />
    <path
      fill="#fff"
      d="M7.6 6.8c.4-2 1.6-2.5 2.6-2.5 2 0 2.4 1.1 3.4 4.2l1.9 5.9 1.9-5.9c1-3.1 1.4-4.2 3.4-4.2 1 0 2.2.4 2.6 2.5l1.5 8.9c.3 1.8.7 3.8.7 4.3 0 .9-.7 1.9-1.8 1.9-1.8 0-2.1-1.3-2.3-2.6l-1.2-7.6-2.6 8.5c-.4 1.3-1 1.8-2.2 1.8-1.2 0-1.8-.5-2.2-1.8l-2.6-8.5-1.2 7.6c-.2 1.3-.5 2.6-2.3 2.6-1.2 0-1.8-1-1.8-1.9 0-.6.3-2.5.7-4.3l1.5-8.9zm23 .9c.7-1.9 1.3-3.6 3.3-3.6 2 0 2.6 1.6 3.3 3.6L41 17.8c.5 1.4.6 1.8.6 2.4 0 1-.8 1.6-1.9 1.6-1.3 0-1.7-.8-2.1-1.9l-.5-1.5h-6.4l-.5 1.6c-.4 1.1-.8 1.9-2.1 1.9-1.1 0-1.9-.6-1.9-1.6 0-.6.1-1 .6-2.4l3.8-10.2zm3.4.8l-2.2 6.3H36l-2-6.3zm8.5-2.1c0-1.4.8-2.1 2-2.1 1.1 0 2 .7 2 2.1v11.7h4.2c1.2 0 2 .7 2 1.8s-.7 1.8-2 1.8h-6.2c-1 0-2-.7-2-2V6.4zm10.8 0c0-1.4.8-2.1 2-2.1 1.1 0 2 .7 2 2.1v11.7h4.2c1.2 0 2 .7 2 1.8s-.7 1.8-2 1.8h-6.2c-1 0-2-.7-2-2V6.4zm13.6 11.5c1.1 0 2.1 1 2.1 2.1 0 1.2-1 2.1-2.1 2.1s-2.1-.9-2.1-2.1c0-1.1.9-2.1 2.1-2.1zm3.6-11.6c0-1.3 1-2 2-2h4.9c3.1 0 6 2 6 5.9 0 3.4-2.1 5.9-5.9 5.9h-3v3.7c0 1.4-.8 2.1-2 2.1s-2-.7-2-2.1V6.3zm4 6.3h2.1c1.7 0 2.6-1.2 2.6-2.4 0-1.6-1.1-2.4-2.6-2.4h-2.1v4.8zm9.9-6.4c0-1.4.8-2.1 2-2.1s2 .7 2 2.1V18h4.3c1.3 0 2 .7 2 1.8s-.7 1.8-2 1.8h-6.3c-1 0-2-.7-2-2V6.2z"
    ></path>
  </svg>
