<svg
    xmlns="http://www.w3.org/2000/svg"
    width="170"
    height="46"
    viewBox="0 0 100 26"
    preserveAspectRatio="xMinYMin meet"
  >
    <path fill="#cc0000" d="M0 0h100v26H0z" />
    <path
      fill="#fff"
      d="M6.9 6.9c.4-2 1.6-2.4 2.6-2.4 1.9 0 2.4 1.1 3.3 4.2l1.9 5.9 1.9-5.9c1-3.1 1.4-4.2 3.3-4.2 1 0 2.2.4 2.6 2.4l1.5 8.7c.3 1.8.6 3.7.6 4.3 0 .9-.7 1.8-1.8 1.8-1.7 0-2.1-1.2-2.2-2.6l-1.1-7.5-2.7 8.4c-.4 1.2-1 1.7-2.1 1.7-1.2 0-1.7-.5-2.1-1.7L10 11.6l-1.1 7.5c-.2 1.3-.5 2.6-2.2 2.6-1.1 0-1.8-1-1.8-1.8 0-.6.3-2.5.6-4.3l1.4-8.7zM29.7 7.7c.7-1.9 1.3-3.5 3.2-3.5 2 0 2.6 1.6 3.3 3.5l3.7 10.1c.5 1.4.6 1.8.6 2.4 0 1-.8 1.6-1.9 1.6-1.3 0-1.7-.8-2-1.9l-.5-1.5h-6.4l-.5 1.5c-.4 1.1-.8 1.9-2 1.9-1.1 0-1.9-.6-1.9-1.6 0-.6.1-1 .6-2.4l3.8-10.1zm3.3.8l-2.1 6.2H35l-2-6.2zM41.3 6.5c0-1.4.8-2.1 1.9-2.1 1.1 0 1.9.7 1.9 2.1V18h4.2c1.2 0 1.9.7 1.9 1.8s-.7 1.8-1.9 1.8h-6.1c-1 0-1.9-.7-1.9-1.9V6.5zM52 6.5c0-1.4.8-2.1 1.9-2.1 1.1 0 1.9.7 1.9 2.1V18H60c1.2 0 1.9.7 1.9 1.8s-.7 1.8-1.9 1.8h-6.1c-1 0-1.9-.7-1.9-1.9V6.5zM65.4 17.8c1.1 0 2.1 1 2.1 2.1s-1 2.1-2.1 2.1-2.1-.9-2.1-2.1c.1-1.1 1-2.1 2.1-2.1zM70.4 17.1c1 0 2.2 1 4.2 1 1.5 0 2.1-.8 2.1-1.6 0-1.3-1.5-1.5-3.7-2.3-2-.6-4.1-1.5-4.1-4.6 0-3.7 2.9-5.4 6.1-5.4 3.1 0 4.8 1.1 4.8 2.6 0 1-.7 1.8-1.7 1.8-1.2 0-1.6-.6-3.3-.6-1 0-1.8.5-1.8 1.4 0 1 1 1.1 3.6 2 2.1.7 4.1 1.8 4.1 5 0 3.9-2.9 5.7-6.5 5.7-2.3 0-5.7-.9-5.7-2.8.1-1.2.7-2.2 1.9-2.2zM81.7 6.4c0-1.4.8-2.1 1.9-2.1s1.9.7 1.9 2.1v4.7l5.3-5.8c.8-.9 1.2-1 1.8-1 .9 0 1.9.8 1.9 1.9 0 .6-.4 1.1-.8 1.5l-4.6 4.6 5 5.5c.6.6 1.1 1.1 1.1 1.9 0 1.2-1 1.9-2 1.9s-1.8-.9-2.4-1.6l-5.2-6v5.6c0 1.4-.8 2.1-1.9 2.1s-1.9-.7-1.9-2.1V6.4z"
    ></path>
  </svg>
